<?xml version="1.0" encoding="utf-8"?>
<!-- Generator: Adobe Illustrator 27.9.0, SVG Export Plug-In . SVG Version: 6.00 Build 0)  -->
<svg version="1.1" id="Layer_1" xmlns="http://www.w3.org/2000/svg" xmlns:xlink="http://www.w3.org/1999/xlink" x="0px" y="0px"
	 viewBox="0 0 204 37" style="enable-background:new 0 0 204 37;" xml:space="preserve">
<style type="text/css">
	.st0{fill-rule:evenodd;clip-rule:evenodd;fill:url(#SVGID_1_);}
	.st1{fill-rule:evenodd;clip-rule:evenodd;fill:url(#SVGID_00000078753577046768385140000011437959027294086792_);}
	.st2{fill-rule:evenodd;clip-rule:evenodd;fill:url(#SVGID_00000104672453347624971360000004555890182541147825_);}
</style>
<g id="Layer_x0020_1">
	<g id="_606659904">
		
			<linearGradient id="SVGID_1_" gradientUnits="userSpaceOnUse" x1="189.7565" y1="784.2614" x2="180.6619" y2="759.6895" gradientTransform="matrix(1 0 0 1 0 -754)">
			<stop  offset="0" style="stop-color:#2D3458"/>
			<stop  offset="1" style="stop-color:#3650A0"/>
		</linearGradient>
		<path class="st0" d="M181.3,5.2l13,2c1,0,2,1,1,3l-3,19c-1,1-2,2-3,2l-13-3c-1,0-2-1-2-2l4-20C178.3,5.2,179.3,4.2,181.3,5.2z"/>
		
			<linearGradient id="SVGID_00000007394008344428262560000004949033807468391307_" gradientUnits="userSpaceOnUse" x1="168.1985" y1="774.5502" x2="182.5774" y2="756.4744" gradientTransform="matrix(1 0 0 1 0 -754)">
			<stop  offset="0" style="stop-color:#BABDD2;stop-opacity:0.6196"/>
			<stop  offset="1" style="stop-color:#3696A6"/>
		</linearGradient>
		<path style="fill-rule:evenodd;clip-rule:evenodd;fill:url(#SVGID_00000007394008344428262560000004949033807468391307_);" d="
			M171.3,3.2l13-2c1,0,3,0,3,2v1l-11-1c-1,0-2,1-2,3v19c0,1,0,1,0,2c-1-1-1-1-1-2l-3-19C169.3,4.2,170.3,3.2,171.3,3.2z"/>
		
			<linearGradient id="SVGID_00000065758281027821785530000014943883731368135811_" gradientUnits="userSpaceOnUse" x1="170.2557" y1="774.1479" x2="188.0421" y2="757.3206" gradientTransform="matrix(1 0 0 1 0 -754)">
			<stop  offset="0" style="stop-color:#BABDD2;stop-opacity:0.6196"/>
			<stop  offset="1" style="stop-color:#DA3439"/>
		</linearGradient>
		<path style="fill-rule:evenodd;clip-rule:evenodd;fill:url(#SVGID_00000065758281027821785530000014943883731368135811_);" d="
			M176.3,3.2h13c1,0,2,1,2,3v1l-10-2c-2-1-3,0-3,1l-4,20c0,0,0,1,1,1c-1,0-1-1-1-2v-19C174.3,4.2,175.3,3.2,176.3,3.2z"/>
	</g>
</g>
<g>
	<path d="M11.7,23.2h-0.1c-1,1.5-2.5,2.3-4.3,2.3c-1.4,0-2.6-0.5-3.6-1.5s-1.5-2.2-1.5-3.6v-7.5h1.8v7.5c0,0.9,0.3,1.7,1,2.4
		s1.4,1,2.4,1c0.8,0,1.4-0.2,1.9-0.6c-1.4,0-2.2-0.5-2.4-1.7h4.9V23.2z"/>
	<path d="M14.5,23.2h-0.1c-0.6,0-1.1-0.2-1.5-0.5c-0.4,0.3-0.9,0.5-1.4,0.5h-0.1v-1.7h0.1c0.4,0,0.6-0.2,0.6-0.6V9.8h1.8v11.1
		c0,0.4,0.2,0.6,0.6,0.6h0.1V23.2z"/>
	<path d="M19.6,20.9c0,1.5-0.6,2.3-1.8,2.3h-1.1v-1.7c0,0.5-0.2,0.9-0.5,1.2s-0.8,0.5-1.3,0.5h-0.7v-1.7h0.2c0.3,0,0.5-0.2,0.5-0.5
		v-5.8c0-0.6,0.2-1.2,0.7-1.6s1-0.7,1.6-0.7c0.6,0,1.2,0.2,1.6,0.7s0.7,1,0.7,1.6V20.9z M17.9,20.9v-5.6c0-0.4-0.2-0.7-0.6-0.7
		c-0.4,0-0.6,0.2-0.6,0.7v6.1c0.2,0,0.4,0,0.6,0C17.7,21.4,17.9,21.2,17.9,20.9z"/>
	<path d="M29.5,23.2h-3.4c-0.3,0-0.6,0.1-0.8,0.3s-0.3,0.5-0.3,0.8c0,0.3,0.1,0.6,0.3,0.8s0.5,0.3,0.8,0.3h0.6v1.8h-0.6
		c-0.8,0-1.5-0.3-2-0.8s-0.8-1.2-0.8-2c0-0.6,0.2-1.2,0.5-1.7s0.8-0.9,1.4-1c-1-0.9-1.5-2.1-1.5-3.6c0-1.4,0.5-2.6,1.5-3.6
		s2.2-1.5,3.6-1.5h0.7v1.7h-0.7c-0.9,0-1.7,0.3-2.4,1s-1,1.5-1,2.4c0,0.9,0.3,1.8,1,2.4s1.4,1,2.4,1h0.7V23.2z"/>
	<path d="M33.1,23.2H33c-0.6,0-1.2-0.2-1.6-0.7s-0.7-1-0.7-1.6V9.8h1.8v11.1c0,0.4,0.2,0.6,0.6,0.6h0.1V23.2z"/>
	<path d="M44,18c0,1.4-0.4,2.5-1.3,3.5c-1,1.1-2.3,1.7-3.9,1.7h-5.9v-1.7h2.1c-0.9-1-1.3-2.1-1.3-3.5c0-1.4,0.5-2.7,1.5-3.7
		s2.2-1.5,3.7-1.5s2.7,0.5,3.7,1.5S44,16.6,44,18z M42.2,18c0-1-0.3-1.8-1-2.4c-0.7-0.7-1.5-1-2.4-1s-1.8,0.3-2.4,1
		c-0.7,0.7-1,1.5-1,2.4c0,1,0.3,1.8,1,2.5s1.5,1,2.5,1c1,0,1.8-0.3,2.5-1S42.2,19,42.2,18z M39.6,11.3c0,0.6-0.3,0.9-0.9,0.9
		c-0.2,0-0.5-0.1-0.6-0.3s-0.3-0.4-0.3-0.6s0.1-0.5,0.3-0.6s0.4-0.3,0.6-0.3c0.3,0,0.5,0.1,0.7,0.3S39.6,11,39.6,11.3z"/>
	<path d="M50.1,20.9c0,0.6-0.2,1.2-0.7,1.6s-1,0.7-1.6,0.7h-2.8v-1.7h2.6c0.4,0,0.6-0.2,0.6-0.6v-2.8c0-0.9-0.3-1.8-0.9-2.4
		s-1.4-1-2.3-1v-1.7c1.4,0,2.6,0.5,3.6,1.5c1,1,1.4,2.2,1.4,3.6V20.9z"/>
	<path d="M66.2,20.9c0,0.6-0.2,1.2-0.7,1.6s-1,0.7-1.6,0.7h-7.7c-0.6,0-1.2-0.2-1.6-0.7s-0.7-1-0.7-1.6v-8.1h1.8v8.1
		c0,0.4,0.2,0.6,0.6,0.6h7.7c0.4,0,0.6-0.2,0.6-0.6v-8.1h1.8V20.9z M59.5,11.3c0,0.2-0.1,0.4-0.2,0.6s-0.4,0.2-0.6,0.2
		s-0.4-0.1-0.6-0.2s-0.2-0.4-0.2-0.6s0.1-0.4,0.2-0.6s0.4-0.2,0.6-0.2s0.4,0.1,0.6,0.2S59.5,11.1,59.5,11.3z M61.5,11.3
		c0,0.2-0.1,0.4-0.2,0.6s-0.4,0.2-0.6,0.2s-0.4-0.1-0.6-0.2s-0.2-0.4-0.2-0.6s0.1-0.4,0.2-0.6s0.4-0.2,0.6-0.2s0.4,0.1,0.6,0.2
		S61.5,11.1,61.5,11.3z"/>
	<path d="M69.8,23.5c0,1.4-0.5,2.6-1.5,3.5l-1.3-1.2c0.7-0.7,1.1-1.6,1.1-2.7V12.9h1.8V23.5z"/>
	<path d="M72.6,23.2h-1.8V9.8h1.8V23.2z"/>
	<path d="M76.2,23.5c0,1.4-0.5,2.6-1.5,3.5l-1.3-1.2c0.7-0.7,1.1-1.6,1.1-2.7V12.9h1.8V23.5z M76.2,11.3c0,0.2-0.1,0.4-0.2,0.6
		s-0.4,0.2-0.6,0.2c-0.2,0-0.4-0.1-0.6-0.2s-0.2-0.4-0.2-0.6c0-0.2,0.1-0.4,0.2-0.6s0.4-0.2,0.6-0.2s0.4,0.1,0.6,0.2
		S76.2,11.1,76.2,11.3z"/>
	<path d="M84.2,23.5c0,1.4-0.5,2.6-1.5,3.5l-1.3-1.2c0.7-0.7,1-1.5,1-2.6c-1.4,0-2.6-0.5-3.6-1.5c-1-1-1.5-2.2-1.5-3.6
		c0-1.4,0.5-2.6,1.5-3.6c1-1,2.2-1.5,3.6-1.5h1.7V23.5z M82.4,21.5v-6.9c-0.8,0-1.6,0.4-2.3,1.1s-1,1.5-1,2.4c0,0.9,0.3,1.7,0.9,2.4
		C80.7,21.2,81.5,21.5,82.4,21.5z"/>
	<path d="M98,18.6h-1.7v-2.6c0-0.3-0.1-0.6-0.3-0.8c-0.2-0.2-0.5-0.3-0.8-0.3s-0.6,0.1-0.8,0.3S94,15.6,94,15.9v3.3
		c0,0.4,0.2,0.6,0.6,0.6h0.6c0.9,0,1.4,0.1,1.8,0.3c0.6,0.3,0.9,0.8,0.9,1.5c0,0.9-0.5,1.7-1.4,2.6c-1,1-2.2,1.4-3.6,1.4
		c-1.4,0-2.6-0.5-3.6-1.5s-1.5-2.2-1.5-3.6v-7.6h1.8v7.6c0,0.9,0.3,1.7,1,2.4s1.4,1,2.4,1c1,0,1.8-0.3,2.5-1
		c0.5-0.5,0.7-0.8,0.7-1.1c0-0.1-0.1-0.2-0.4-0.2c0.4,0,0.2,0-0.5,0h-0.5c-0.7,0-1.3-0.1-1.7-0.4c-0.5-0.4-0.8-1.2-0.8-2.4v-2.9
		c0-0.8,0.3-1.5,0.8-2c0.6-0.6,1.2-0.8,2-0.8c0.8,0,1.5,0.3,2,0.8s0.8,1.2,0.8,2V18.6z"/>
	<path d="M101.5,23.2h-0.1c-0.6,0-1.2-0.2-1.6-0.7s-0.7-1-0.7-1.6V9.8h1.8v11.1c0,0.4,0.2,0.6,0.6,0.6h0.1V23.2z"/>
	<path d="M107.8,23.2h-1.1c0.2,0.2,0.3,0.6,0.3,1c0,0.7-0.2,1.3-0.7,1.7c-0.5,0.5-1,0.7-1.7,0.7s-1.3-0.2-1.7-0.7
		c-0.5-0.5-0.7-1.1-0.7-1.7c0-0.4,0.1-0.8,0.3-1h-1.1v-1.7h1.1c-0.1-0.2-0.2-0.4-0.2-0.8v-5.4c0-0.6,0.2-1.2,0.7-1.6s1-0.7,1.6-0.7
		c0.6,0,1.2,0.2,1.6,0.7s0.7,1,0.7,1.6v5.6c0,0.3-0.1,0.5-0.2,0.8h1.1V23.2z M105.5,24.2c0-0.3-0.1-0.5-0.3-0.7s-0.4-0.3-0.7-0.3
		c-0.3,0-0.5,0.1-0.7,0.3s-0.3,0.4-0.3,0.7c0,0.6,0.3,1,0.9,1c0.3,0,0.5-0.1,0.7-0.3S105.5,24.5,105.5,24.2z M105.1,20.8v-5.4
		c0-0.4-0.2-0.7-0.6-0.7c-0.4,0-0.6,0.2-0.6,0.7v5.4c0,0.4,0.2,0.7,0.6,0.7C104.9,21.5,105.1,21.3,105.1,20.8z"/>
	<path d="M110.6,20.9c0,0.6-0.2,1.2-0.7,1.6s-1,0.7-1.6,0.7h-0.8v-1.7h0.8c0.4,0,0.6-0.2,0.6-0.6v-8.1h1.8V20.9z M109.6,11.3
		c0,0.2-0.1,0.4-0.2,0.6s-0.4,0.2-0.6,0.2s-0.4-0.1-0.6-0.2s-0.2-0.4-0.2-0.6s0.1-0.4,0.2-0.6s0.4-0.2,0.6-0.2s0.4,0.1,0.6,0.2
		S109.6,11.1,109.6,11.3z M111.6,11.3c0,0.2-0.1,0.4-0.2,0.6s-0.4,0.2-0.6,0.2s-0.4-0.1-0.6-0.2s-0.2-0.4-0.2-0.6s0.1-0.4,0.2-0.6
		s0.4-0.2,0.6-0.2s0.4,0.1,0.6,0.2S111.6,11.1,111.6,11.3z"/>
	<path d="M114.7,23.5c0,1.4-0.5,2.6-1.5,3.5l-1.3-1.2c0.7-0.7,1.1-1.6,1.1-2.7V12.9h1.8V23.5z"/>
	<path d="M118.2,23.2h-0.1c-0.6,0-1.2-0.2-1.6-0.7s-0.7-1-0.7-1.6V9.8h1.8v11.1c0,0.4,0.2,0.6,0.6,0.6h0.1V23.2z"/>
	<path d="M124.9,18.1c0,1.4-0.5,2.6-1.5,3.6s-2.2,1.5-3.6,1.5H118v-1.7h1.8c0.9,0,1.7-0.3,2.4-1s1-1.5,1-2.4c0-0.9-0.3-1.8-1-2.4
		c-0.7-0.7-1.5-1-2.4-1h-1.2v-1.7h1.2c1.4,0,2.6,0.5,3.6,1.5S124.9,16.6,124.9,18.1z M124.9,12.2h-6.3v-1.7h6.3V12.2z"/>
	<path d="M145.2,23.2h-0.1c-0.5,0-1-0.2-1.4-0.5c-0.4,0.4-0.9,0.5-1.5,0.5c-0.7,0-1.1-0.1-1.4-0.3c-0.3,0.2-0.8,0.3-1.4,0.3
		c-0.6,0-1.1-0.1-1.4-0.3c-1,1.8-2.5,2.6-4.4,2.6c-1.4,0-2.6-0.5-3.6-1.5s-1.5-2.2-1.5-3.6v-7.5h1.8v7.5c0,0.9,0.3,1.7,1,2.4
		s1.4,1,2.4,1c1,0,1.8-0.4,2.4-1.1c0.6-0.7,0.9-1.5,0.9-2.5v-7.3h1.8v7.7c0,0.6,0.2,0.9,0.6,0.9c0.3,0,0.4-0.1,0.5-0.2
		c0-0.1,0.1-0.3,0.1-0.7v-7.7h1.8v7.7c0,0.4,0,0.6,0.1,0.7c0.1,0.2,0.2,0.2,0.5,0.2c0.3,0,0.5-0.1,0.5-0.3c0-0.1,0-0.3,0-0.7v-7.7
		h1.8v8c0,0.4,0.2,0.6,0.6,0.6h0.1V23.2z"/>
	<path d="M149.6,23.2h-0.9c-0.6,0-1.1-0.2-1.5-0.5c-0.4,0.4-0.8,0.5-1.4,0.5H145v-1.7h0.9c0.4,0,0.6-0.2,0.6-0.6v-8.1h1.8v8.1
		c0,0.4,0.2,0.6,0.6,0.6h0.9V23.2z M147.1,24.9c0,0.2-0.1,0.4-0.2,0.6c-0.2,0.2-0.4,0.2-0.6,0.2s-0.4-0.1-0.6-0.2
		c-0.2-0.2-0.2-0.4-0.2-0.6c0-0.2,0.1-0.4,0.2-0.6s0.4-0.2,0.6-0.2c0.2,0,0.4,0.1,0.6,0.2S147.1,24.6,147.1,24.9z M149.1,24.9
		c0,0.2-0.1,0.4-0.2,0.6c-0.2,0.2-0.4,0.2-0.6,0.2s-0.4-0.1-0.6-0.2c-0.2-0.2-0.2-0.4-0.2-0.6c0-0.2,0.1-0.4,0.2-0.6
		s0.4-0.2,0.6-0.2c0.2,0,0.4,0.1,0.6,0.2S149.1,24.6,149.1,24.9z"/>
	<path d="M151.8,20.9c0,0.6-0.2,1.2-0.7,1.6s-1,0.7-1.6,0.7h-0.1v-1.7h0.1c0.4,0,0.6-0.2,0.6-0.6v-8.1h1.8V20.9z M151.5,25
		c0,0.2-0.1,0.5-0.3,0.6c-0.2,0.2-0.4,0.3-0.6,0.3c-0.2,0-0.4-0.1-0.6-0.3c-0.2-0.2-0.3-0.4-0.3-0.6s0.1-0.5,0.3-0.6
		s0.4-0.3,0.6-0.3c0.2,0,0.5,0.1,0.6,0.3S151.5,24.7,151.5,25z"/>
	<path d="M155.4,23.2h-0.1c-0.6,0-1.2-0.2-1.6-0.7s-0.7-1-0.7-1.6V9.8h1.8v11.1c0,0.4,0.2,0.6,0.6,0.6h0.1V23.2z"/>
	<path d="M159.7,23.2h-0.9c-0.6,0-1.1-0.2-1.5-0.5c-0.4,0.4-0.8,0.5-1.4,0.5h-0.9v-1.7h0.9c0.4,0,0.6-0.2,0.6-0.6v-8.1h1.8v8.1
		c0,0.4,0.2,0.6,0.6,0.6h0.9V23.2z M157.2,11.3c0,0.2-0.1,0.4-0.2,0.6s-0.4,0.2-0.6,0.2s-0.4-0.1-0.6-0.2s-0.2-0.4-0.2-0.6
		s0.1-0.4,0.2-0.6s0.4-0.2,0.6-0.2s0.4,0.1,0.6,0.2S157.2,11.1,157.2,11.3z M159.2,11.3c0,0.2-0.1,0.4-0.2,0.6s-0.4,0.2-0.6,0.2
		s-0.4-0.1-0.6-0.2s-0.2-0.4-0.2-0.6s0.1-0.4,0.2-0.6s0.4-0.2,0.6-0.2s0.4,0.1,0.6,0.2S159.2,11.1,159.2,11.3z"/>
	<path d="M162.5,20.9c0,0.6-0.2,1.2-0.7,1.6s-1,0.7-1.6,0.7h-0.8v-1.7h0.8c0.4,0,0.6-0.2,0.6-0.6v-8.1h1.8V20.9z M161.5,24.9
		c0,0.2-0.1,0.4-0.2,0.6c-0.2,0.2-0.4,0.2-0.6,0.2s-0.4-0.1-0.6-0.2c-0.2-0.2-0.2-0.4-0.2-0.6c0-0.2,0.1-0.4,0.2-0.6
		s0.4-0.2,0.6-0.2c0.2,0,0.4,0.1,0.6,0.2S161.5,24.6,161.5,24.9z M163.5,24.9c0,0.2-0.1,0.4-0.2,0.6c-0.2,0.2-0.4,0.2-0.6,0.2
		s-0.4-0.1-0.6-0.2c-0.2-0.2-0.2-0.4-0.2-0.6c0-0.2,0.1-0.4,0.2-0.6s0.4-0.2,0.6-0.2c0.2,0,0.4,0.1,0.6,0.2S163.5,24.6,163.5,24.9z"
		/>
	<path d="M169.4,20.9c0,0.6-0.2,1.2-0.7,1.6s-1,0.7-1.6,0.7h-2.8v-1.7h2.6c0.4,0,0.6-0.2,0.6-0.6v-2.8c0-0.9-0.3-1.8-0.9-2.4
		s-1.4-1-2.3-1v-1.7c1.4,0,2.6,0.5,3.6,1.5c1,1,1.4,2.2,1.4,3.6V20.9z"/>
</g>
</svg>
