<?xml version="1.0" encoding="utf-8"?>
<!-- Generator: Adobe Illustrator 28.1.0, SVG Export Plug-In . SVG Version: 6.00 Build 0)  -->
<svg version="1.1" id="Layer_1" xmlns="http://www.w3.org/2000/svg" xmlns:xlink="http://www.w3.org/1999/xlink" x="0px" y="0px"
	 viewBox="0 0 204 37" style="enable-background:new 0 0 204 37;" xml:space="preserve">
<style type="text/css">
	.st0{fill-rule:evenodd;clip-rule:evenodd;fill:url(#SVGID_1_);}
	.st1{fill-rule:evenodd;clip-rule:evenodd;fill:url(#SVGID_00000070814373964688740180000007481848207638097082_);}
	.st2{fill-rule:evenodd;clip-rule:evenodd;fill:url(#SVGID_00000127011474850208610860000006149538264360801927_);}
	.st3{enable-background:new    ;}
	.st4{fill:#3F4196;}
</style>
<g id="Layer_x0020_1">
	<g id="_606659904">
		
			<linearGradient id="SVGID_1_" gradientUnits="userSpaceOnUse" x1="41.7801" y1="7.7474" x2="32.6855" y2="32.3193" gradientTransform="matrix(1 0 0 -1 0 38)">
			<stop  offset="0" style="stop-color:#2D3458"/>
			<stop  offset="1" style="stop-color:#3650A0"/>
		</linearGradient>
		<path class="st0" d="M33.3,5.2l13,2c1,0,2,1,1,3l-3,19c-1,1-2,2-3,2l-13-3c-1,0-2-1-2-2l4-20C30.3,5.2,31.3,4.2,33.3,5.2z"/>
		
			<linearGradient id="SVGID_00000039117418654029121510000005643801463252938394_" gradientUnits="userSpaceOnUse" x1="20.2457" y1="17.4122" x2="34.6246" y2="35.488" gradientTransform="matrix(1 0 0 -1 0 38)">
			<stop  offset="0" style="stop-color:#BABDD2;stop-opacity:0.6196"/>
			<stop  offset="1" style="stop-color:#3696A6"/>
		</linearGradient>
		<path style="fill-rule:evenodd;clip-rule:evenodd;fill:url(#SVGID_00000039117418654029121510000005643801463252938394_);" d="
			M23.3,3.2l13-2c1,0,3,0,3,2v1l-11-1c-1,0-2,1-2,3v19c0,1,0,1,0,2c-1-1-1-1-1-2l-3-19C21.3,4.2,22.3,3.2,23.3,3.2z"/>
		
			<linearGradient id="SVGID_00000146470163083276038500000017265770166166788225_" gradientUnits="userSpaceOnUse" x1="22.2975" y1="17.8079" x2="40.0839" y2="34.6353" gradientTransform="matrix(1 0 0 -1 0 38)">
			<stop  offset="0" style="stop-color:#BABDD2;stop-opacity:0.6196"/>
			<stop  offset="1" style="stop-color:#DA3439"/>
		</linearGradient>
		<path style="fill-rule:evenodd;clip-rule:evenodd;fill:url(#SVGID_00000146470163083276038500000017265770166166788225_);" d="
			M28.3,3.2h13c1,0,2,1,2,3v1l-10-2c-2-1-3,0-3,1l-4,20c0,0,0,1,1,1c-1,0-1-1-1-2v-19C26.3,4.2,27.3,3.2,28.3,3.2z"/>
	</g>
	<g class="st3">
		<path class="st4" d="M79.9,6.8l-0.2,0.3c-1,1.7-1.8,3.4-2.5,5.1l-0.1,0.4l-0.2-0.1c-0.2-1.6-0.8-2.9-1.7-3.9c-0.9-1-2-1.4-3.3-1.4
			c-1.4,0-2.5,0.6-3.4,1.8c-1.1,1.5-1.7,4-1.7,7.5c0,3,0.5,5.4,1.6,7.2c1.1,1.7,2.5,2.6,4.4,2.6c1.5,0,2.7-0.5,3.6-1.5
			c0.9-1,1.4-2.4,1.6-4.3c0-0.5,0.2-0.7,0.5-0.7c0.4,0,0.6,0.3,0.6,1c0,1-0.2,2.1-0.7,3.2c-1,2.4-3.1,3.5-6.2,3.5
			c-2.8,0-5-1-6.7-2.9s-2.5-4.6-2.5-7.9c0-3.1,0.9-5.7,2.6-7.7c1.7-2.1,3.8-3.1,6.4-3.1c1.2,0,2.6,0.3,4.1,0.9
			c0.8,0.3,1.5,0.5,2,0.5c0.6,0,1.1-0.2,1.5-0.5L79.9,6.8z M80.5,20.6c-0.2,2.7-0.9,4.7-2.2,6.1c-1.3,1.4-3.2,2.1-5.5,2.1
			c-1.8,0-3.5-0.6-5-1.7V27c1.4,0.9,3,1.4,5,1.4c2.1,0,3.9-0.7,5.2-2c0.7-0.7,1.1-1.4,1.4-2.2c0.3-0.8,0.5-1.9,0.6-3.3l0-0.4
			L80.5,20.6z M75.3,9.5c-1-0.8-1.9-1.2-2.8-1.2c-2.8,0-4.2,2.7-4.2,8c0,2.4,0.3,4.4,1,6c0.6,1.6,1.6,2.6,2.7,3.1v0.2
			c-1.3-0.3-2.3-1.2-3-2.9c-0.8-1.7-1.1-3.8-1.1-6.4c0-5.6,1.5-8.3,4.6-8.3c1,0,2,0.5,2.9,1.4V9.5z M81.1,7.5l-0.2,0.3
			c-1.2,2-2.1,3.8-2.8,5.5l-0.4-0.2l0.2-0.4c0.5-1.1,1-2.1,1.4-2.8l1.3-2.3l0.2-0.3L81.1,7.5z"/>
		<path class="st4" d="M97.1,6.3l-1.7,1.9l2.6,7l0.6-0.4l-2.4-6.3l1.7-2l0.4,0.2l-1.6,1.9l2.3,6c0.1-0.1,0.2-0.2,0.2-0.2l0.5-0.5
			c0.3-0.3,0.5-0.4,0.6-0.5c0.3,1.2,0.7,2.3,1.3,3.3c-0.3,0-0.5,0-0.7,0c-1,0-1.8,0.2-2.2,0.5l2.9,7.9l2.4,1.9H96l2.2-1.9l-1.8-4.7
			c-1.2,1.2-2.1,2.3-2.7,3.4l-0.4-0.1c0.6-1.1,1.6-2.2,2.8-3.5l0.1-0.2L96,19.3c-1.3,1.1-2.3,2.3-3.2,3.7l-0.3-0.5
			c-0.6-0.9-1.3-1.9-2.1-3l-0.2-0.2c-0.8,1.8-1.2,3.3-1.2,4.5c0,0.7,0.1,1.2,0.3,1.7s0.8,1.2,1.7,2.3c0.1,0.1,0.2,0.2,0.4,0.5h-8.7
			l-0.3-0.4h8.2l-0.3-0.3c-0.7-0.9-1.2-1.5-1.4-2s-0.3-1-0.3-1.7c0-1.1,0.4-2.7,1.3-4.9l-0.7-0.7c-0.1,0.3-0.3,0.8-0.5,1.5l-0.5,1.6
			c-0.3,0.9-0.4,1.6-0.4,2.2c0,0.6,0.1,1.1,0.3,1.5c0.2,0.4,0.6,0.9,1.3,1.6c0.1,0.1,0.2,0.2,0.3,0.3h-8.1c1.5-0.8,2.8-1.9,3.6-3.2
			c0.9-1.3,1.8-3.4,2.7-6.2l0.1-0.2c-0.6-0.5-1.4-0.8-2.5-0.9c0.6-0.9,1-1.8,1.4-2.8c0.1,0.1,0.2,0.2,0.3,0.3l0.7,0.7
			c0.2,0.2,0.5,0.5,0.9,0.7l0.3-0.7l-0.2-0.2c-0.5-0.5-1-0.9-1.4-1.1l-0.1-0.1l0.3-0.4c0.6,0.4,1.1,0.8,1.6,1.3l2.2-6l-1.7-1.8H97.1
			z M92.4,9.6l-2.6,6.8c0.8,0.8,1.5,1.7,2.1,2.5l0.7,1c0,0,0.1,0.1,0.2,0.2C93,20,93,19.9,93,19.9l0.2-0.3c0,0,0.1-0.1,0.2-0.2
			c-0.8-1.2-1.6-2.2-2.6-3.1l2.1-5.4L92.4,9.6z M93.1,11.4l-1.8,4.7c0.1,0.1,0.1,0.2,0.2,0.2l0.7,0.7c0.4,0.4,0.8,1,1.4,1.8l0.2,0.2
			c0.5-0.6,1-1.2,1.6-1.7L93.1,11.4z M101.9,14.2c0.2,1,0.8,2.3,1.8,4c-0.2,0-0.4,0-0.4,0l-1.3-0.1c-0.6-0.1-1-0.1-1.3-0.1
			c0,0-0.2,0-0.3,0l2.7,7.1l3.6,3.2h-9.3L97,27.8h8.6l-2.9-2.6l-2.9-7.6c0.4-0.1,0.8-0.1,1.3-0.1c0.6,0,1.2,0,1.9,0.1l-0.2-0.4
			c-0.7-1.3-1.1-2.4-1.4-3.4L101.9,14.2z"/>
		<path class="st4" d="M107.9,8.2c2.5-1.5,5.3-2.2,8.2-2.2c2.3,0,4.2,0.5,5.6,1.5c1.5,1,2.2,2.2,2.2,3.8c0,1.2-0.5,2.3-1.4,3.3
			c-1,1-2.3,1.7-4,2.1c0.7,2,1.7,4,3,6c1.3,1.9,2.5,3.4,3.8,4.4l-0.2,0.1c-1.6,0.5-3.2,1.3-4.7,2.3l-0.2,0.2l-0.1-0.5
			c-0.7-4.2-1.6-7.7-2.9-10.6l-0.1-0.2c-0.7,0.3-1.7,0.6-3,0.8l-0.1,0v6l2.8,3h-8.3l-0.3-0.4h7.7l-2.3-2.5v-6.5l0.3,0
			c1.2-0.1,2.2-0.4,3.1-0.7c-0.1-0.1-0.1-0.2-0.1-0.2l-0.2-0.5c0,0,0-0.1-0.1-0.2c-0.7,0.2-1.9,0.4-3.8,0.6l-0.2,0V25l1.8,1.9h-7.1
			l2.1-1.9v-5.4l-0.1,0c-0.6,0.1-1.2,0.3-1.7,0.5l-0.1,0l-0.1-0.3c0.5-0.2,0.8-0.3,1.1-0.4l0.9-0.2l0.1,0v-0.8
			c-0.6,0-1.4,0.1-2.4,0.4l-0.2,0.1c0-0.2,0.1-0.5,0.3-1c0,0,0.1-0.3,0.2-0.7c0,0,0-0.1,0-0.1c0.5,0,0.9,0,1.1,0c0.3,0,0.6,0,0.8,0
			V9c-0.5-0.3-1-0.6-1.5-0.8L107.9,8.2z M112.8,7.8v8.7c0.3,0,0.6,0,0.9-0.1V8.5c0.6-0.2,1.3-0.2,2.1-0.2c2.1,0,3.5,0.7,4.3,2.1
			c-0.8-0.6-1.5-1.1-2.1-1.3c-0.6-0.2-1.3-0.4-2.2-0.4c-0.7,0-1.2,0.1-1.7,0.2v7.6l0.2,0c2.1-0.4,3.7-1,4.7-1.8
			c1-0.8,1.5-1.9,1.5-3.2c0-1.2-0.5-2.2-1.4-3c-0.9-0.8-2.1-1.2-3.5-1.2C114.5,7.1,113.5,7.4,112.8,7.8z M120.6,17.4
			c0.7,2.2,1.9,4.4,3.6,6.5c1.1,1.3,2.4,2.5,4.1,3.6c-2.5,0.7-4.8,1.7-6.9,3l-0.1,0.1l-0.3-0.3c2-1.3,4.2-2.3,6.6-3
			c-3.1-2.1-5.5-5.4-7.3-9.9l-0.1-0.3c3.3-1.2,4.9-3.1,4.9-5.7c0-1.1-0.4-2.2-1.3-3.4c1.1,1,1.6,2.2,1.6,3.8
			C125.3,14.3,123.7,16.2,120.6,17.4z"/>
		<path class="st4" d="M128.6,6.3h6.3c3.1,0,5.4,0.6,6.9,1.8c2.2,1.8,3.3,4.5,3.3,8.3c0,3.9-1,6.7-2.9,8.5c-0.9,0.8-1.9,1.3-3,1.7
			s-2.5,0.5-4.3,0.5h-6.8l2.2-1.7V8.1L128.6,6.3z M129.1,28.2l-0.2-0.4h5.9c2.9,0,5.1-0.4,6.6-1.2c3.2-1.7,4.8-5,4.8-10
			c0-3.3-0.7-5.7-2.2-7.3l-0.6-0.7c0,0-0.1-0.1-0.2-0.2c2.3,1.4,3.4,4.2,3.4,8.2c0,4.2-1.1,7.4-3.4,9.4c-1.7,1.5-4.6,2.3-8.5,2.3
			H129.1z M133.5,7.6v18.1h0.9v-17c0.6-0.1,1.1-0.1,1.5-0.1c0.9,0,1.6,0.1,2.1,0.3c0.5,0.2,1,0.5,1.5,1c-1.1-0.5-2.4-0.8-3.7-0.8
			c-0.3,0-0.6,0-1.1,0.1v16.6c1.2,0,2.1-0.1,2.7-0.3c0.6-0.2,1.2-0.6,1.8-1.2c1.6-1.6,2.3-4.2,2.3-8c0-3.6-0.8-6.1-2.5-7.5
			c-1-0.8-2.6-1.2-4.8-1.2H133.5z"/>
		<path class="st4" d="M163.1,6.4c-0.6,0.8-1,1.5-1.3,2.4c-0.7,1.6-1.1,2.6-1.3,3l-0.1,0.1c0-0.1-0.1-0.2-0.1-0.3
			c-0.3-1-0.5-1.6-0.7-2c-0.2-0.4-0.5-0.7-0.9-1.1c-1-0.9-2.1-1.3-3.3-1.3c-1.1,0-2.1,0.3-2.9,1c-0.8,0.6-1.1,1.4-1.1,2.4
			c0,1.8,1.4,3,4.1,3.7l2.7,0.7c3.9,0.9,5.8,3,5.8,6.1c0,1.8-0.7,3.2-2,4.4c-1.3,1.2-3,1.8-4.9,1.8c-1.2,0-2.6-0.2-4.1-0.6l-1.9-0.5
			c-0.8-0.2-1.4-0.3-1.9-0.3c-0.7,0-1.3,0.2-2,0.6l-0.1-0.2c1.3-2,2.3-3.9,2.8-5.7l0.3,0.1c0.2,1.7,0.9,3,2,3.9
			c1.1,0.9,2.6,1.4,4.4,1.4c1.4,0,2.6-0.3,3.4-1c0.8-0.7,1.3-1.6,1.3-2.7c0-1.3-0.6-2.4-1.8-3.2c-0.8-0.6-2.6-1.2-5.2-1.7
			c-2-0.4-3.5-1.1-4.4-2c-0.9-0.9-1.4-2.2-1.4-3.8c0-1.7,0.6-3.1,1.8-4.1c1.2-1.1,2.8-1.6,4.8-1.6c1.3,0,2.7,0.2,4.4,0.7
			c0.8,0.2,1.4,0.3,1.7,0.3c0.5,0,1.1-0.2,1.7-0.5L163.1,6.4z M163.1,16.7c1.5,1.1,2.2,2.6,2.2,4.5c0,2-0.8,3.8-2.4,5.2
			s-3.5,2.1-5.8,2.1c-1.2,0-2.2-0.1-3.1-0.4l-2.6-0.6c-0.6-0.2-1.2-0.2-1.9-0.2c-0.6,0-1.2,0.1-1.7,0.4l-0.2-0.5
			c0.6-0.3,1.1-0.4,1.7-0.4c0.6,0,1.4,0.1,2.2,0.3l2.5,0.6c1,0.2,2,0.4,3.1,0.4c2.1,0,4-0.7,5.5-2.1c1.5-1.4,2.3-3,2.3-5
			C164.9,19.5,164.3,18,163.1,16.7L163.1,16.7z M149.7,16.1l0.5,0.3c0.4,0.6,1.4,1.2,3.1,1.6l2.6,0.6c1.8,0.4,2.9,0.8,3.5,1.1
			c0.6,0.3,1,0.8,1.2,1.4l-0.1,0.1c-0.5-0.6-1-1-1.6-1.2s-1.6-0.6-3.2-1c-2.3-0.5-3.9-1-4.7-1.4C150.3,17.3,149.8,16.8,149.7,16.1z
			 M151.7,21.4c0.4,1.9,1.5,3.3,3.2,4.1v0.1c-2-0.6-3.2-2-3.6-4.2L151.7,21.4z M159.4,10.3c-1.2-1.3-2.4-1.9-3.8-1.9
			c-0.8,0-1.5,0.2-2,0.7c-0.5,0.5-0.8,1.1-0.8,1.8c0,0.8,0.5,1.6,1.6,2.4l0.1,0.1l-0.1,0.1c-1.4-0.6-2.1-1.6-2.1-2.8
			c0-0.8,0.3-1.5,0.9-2c0.6-0.5,1.4-0.8,2.4-0.8c0.9,0,1.7,0.2,2.4,0.6c0.7,0.4,1.2,0.9,1.5,1.7L159.4,10.3z M164.1,7.1L164,7.4
			c-0.4,0.7-0.8,1.4-1.1,2.1c-0.8,1.6-1.2,2.5-1.3,2.6l-0.1,0.1l-0.4-0.2l0.1-0.1c0.3-0.7,0.8-1.6,1.4-2.8l1.1-2.1l0.1-0.1
			L164.1,7.1z"/>
	</g>
</g>
</svg>
