<?xml version="1.0" encoding="utf-8"?>
<!-- Generator: Adobe Illustrator 27.9.0, SVG Export Plug-In . SVG Version: 6.00 Build 0)  -->
<svg version="1.1" id="Layer_1" xmlns="http://www.w3.org/2000/svg" xmlns:xlink="http://www.w3.org/1999/xlink" x="0px" y="0px"
	 viewBox="0 0 204 37" style="enable-background:new 0 0 204 37;" xml:space="preserve">
<style type="text/css">
	.st0{fill-rule:evenodd;clip-rule:evenodd;fill:url(#SVGID_1_);}
	.st1{fill-rule:evenodd;clip-rule:evenodd;fill:url(#SVGID_00000156562572219578278040000016645799007801398705_);}
	.st2{fill-rule:evenodd;clip-rule:evenodd;fill:url(#SVGID_00000046307388008217890150000009272029972061468826_);}
	.st3{fill:url(#SVGID_00000036948105431666897720000017978602182115836831_);}
	.st4{fill:url(#SVGID_00000111179566339885976390000006547499204859347101_);}
	.st5{fill:url(#SVGID_00000139979852251464640710000018069468912525988247_);}
	.st6{fill:url(#SVGID_00000163782578961762077980000000465284531788102303_);}
	.st7{fill:url(#SVGID_00000044884171489096920860000002630306359884309673_);}
	.st8{fill:url(#SVGID_00000173853266886675067350000013126700472222558872_);}
	.st9{fill:url(#SVGID_00000150798873451490167280000009667902525618650799_);}
	.st10{fill:url(#SVGID_00000031204209175113271190000017230797107265895047_);}
	.st11{fill:url(#SVGID_00000085217467155294648580000009172435897564392119_);}
	.st12{fill:url(#SVGID_00000020394049671149713150000016875356372845427105_);}
	.st13{fill:url(#SVGID_00000059301995427899144230000001721997235436315280_);}
	.st14{fill:url(#SVGID_00000036971998930853326680000016175568887159026617_);}
	.st15{fill:url(#SVGID_00000068643141687074119760000005658938573075644065_);}
	.st16{fill:url(#SVGID_00000070079424453435640660000006489772357774746299_);}
	.st17{fill:url(#SVGID_00000176029292092271153540000013118945098470036921_);}
	.st18{fill:url(#SVGID_00000140695999433390695600000001053059368275977107_);}
	.st19{fill:url(#SVGID_00000158727426447991448790000004215637533474229933_);}
	.st20{fill:url(#SVGID_00000003074926352973619610000014836424413216562616_);}
	.st21{fill:url(#SVGID_00000000920639729554488340000013961285802454562733_);}
	.st22{fill:url(#SVGID_00000090296634415555686130000015537035485081609128_);}
	.st23{fill:url(#SVGID_00000011005732642828045560000016390306400003054527_);}
	.st24{fill:url(#SVGID_00000008118232846092374640000009470000664998226110_);}
	.st25{fill:url(#SVGID_00000150780891706839469050000014135270734461859203_);}
	.st26{fill:url(#SVGID_00000174585468878146785060000000109341770036260764_);}
	.st27{fill:url(#SVGID_00000155846167308925745990000006027783347119435439_);}
	.st28{fill:url(#SVGID_00000150799344039204110540000007312253454067094914_);}
</style>
<g id="Layer_x0020_1">
	<g id="_606659904">
		
			<linearGradient id="SVGID_1_" gradientUnits="userSpaceOnUse" x1="189.7565" y1="-746.2614" x2="180.6619" y2="-721.6895" gradientTransform="matrix(1 0 0 -1 0 -716)">
			<stop  offset="0" style="stop-color:#2D3458"/>
			<stop  offset="1" style="stop-color:#3650A0"/>
		</linearGradient>
		<path class="st0" d="M181.3,5.2l13,2c1,0,2,1,1,3l-3,19c-1,1-2,2-3,2l-13-3c-1,0-2-1-2-2l4-20C178.3,5.2,179.3,4.2,181.3,5.2z"/>
		
			<linearGradient id="SVGID_00000029763488485262528050000010740976311046691755_" gradientUnits="userSpaceOnUse" x1="168.1985" y1="-736.5502" x2="182.5774" y2="-718.4744" gradientTransform="matrix(1 0 0 -1 0 -716)">
			<stop  offset="0" style="stop-color:#BABDD2;stop-opacity:0.6196"/>
			<stop  offset="1" style="stop-color:#3696A6"/>
		</linearGradient>
		<path style="fill-rule:evenodd;clip-rule:evenodd;fill:url(#SVGID_00000029763488485262528050000010740976311046691755_);" d="
			M171.3,3.2l13-2c1,0,3,0,3,2v1l-11-1c-1,0-2,1-2,3v19c0,1,0,1,0,2c-1-1-1-1-1-2l-3-19C169.3,4.2,170.3,3.2,171.3,3.2z"/>
		
			<linearGradient id="SVGID_00000156556622543265756790000009319692123505102976_" gradientUnits="userSpaceOnUse" x1="170.2557" y1="-736.1479" x2="188.0421" y2="-719.3206" gradientTransform="matrix(1 0 0 -1 0 -716)">
			<stop  offset="0" style="stop-color:#BABDD2;stop-opacity:0.6196"/>
			<stop  offset="1" style="stop-color:#DA3439"/>
		</linearGradient>
		<path style="fill-rule:evenodd;clip-rule:evenodd;fill:url(#SVGID_00000156556622543265756790000009319692123505102976_);" d="
			M176.3,3.2h13c1,0,2,1,2,3v1l-10-2c-2-1-3,0-3,1l-4,20c0,0,0,1,1,1c-1,0-1-1-1-2v-19C174.3,4.2,175.3,3.2,176.3,3.2z"/>
	</g>
</g>
<g>
	
		<linearGradient id="SVGID_00000165201435720011427740000001271264198651688069_" gradientUnits="userSpaceOnUse" x1="22.6987" y1="22.4697" x2="29.8149" y2="22.4697">
		<stop  offset="0" style="stop-color:#2D3458"/>
		<stop  offset="1" style="stop-color:#3650A0"/>
	</linearGradient>
	<path style="fill:url(#SVGID_00000165201435720011427740000001271264198651688069_);" d="M29.8,21h-0.4c-0.3,0-0.7,0-1.1,0.1
		c-0.6,0.1-0.8,0.2-0.8,0.4c0,0.1,0.2,0.2,0.5,0.3c0.5,0.1,0.8,0.2,0.9,0.2c0.3,0.1,0.5,0.4,0.6,0.7c0,0.3,0,0.6-0.1,0.8
		c-0.2,0.5-0.8,0.9-1.7,1.2c-0.8,0.3-1.5,0.4-2.2,0.4c-0.8,0-1.5-0.2-2-0.6c-0.5-0.4-0.8-1.1-0.8-1.9c0-0.4,0.1-0.8,0.3-1.3
		c0.2-0.4,0.3-0.7,0.5-0.9c0.1-0.1,0.1-0.1,0.2-0.1c0.1,0,0.1,0.1,0,0.2c-0.3,0.7-0.5,1.3-0.5,1.7c0,1.3,0.8,1.9,2.5,1.9
		c0.5,0,1.1-0.1,1.9-0.3c1-0.2,1.5-0.5,1.5-0.8c0-0.1-0.2-0.2-0.5-0.3c-0.5-0.1-0.8-0.2-1-0.2C27.2,22.2,27,22,27,21.6
		c0-0.5,0.3-0.9,0.8-1.2c0.5-0.3,1-0.5,1.6-0.5h0.4V21z"/>
	
		<linearGradient id="SVGID_00000150104916377059941330000009456330319590081673_" gradientUnits="userSpaceOnUse" x1="29.3911" y1="16.9187" x2="32.4951" y2="16.9187">
		<stop  offset="0" style="stop-color:#2D3458"/>
		<stop  offset="1" style="stop-color:#3650A0"/>
	</linearGradient>
	<path style="fill:url(#SVGID_00000150104916377059941330000009456330319590081673_);" d="M32.5,21h-0.4c-0.7,0-1.1-0.4-1.3-1.3
		c-0.1,0.3-0.2,0.6-0.3,0.8c-0.2,0.3-0.4,0.5-0.7,0.5h-0.4v-1h0.2c0.6,0,0.9-0.4,1-1.1c0-0.4,0-1.2-0.1-2.3c-0.1-1.2-0.1-2-0.1-2.5
		c0-0.7,0.1-1.1,0.2-1.1c0.1,0,0.2,0,0.2,0.1C31,13,31,13,31,13.1c-0.1,1.8,0,3.4,0.1,4.9c0.1,1.3,0.5,2,1,2h0.3V21z"/>
	
		<linearGradient id="SVGID_00000158724022210457662120000016220500853696778128_" gradientUnits="userSpaceOnUse" x1="32.0918" y1="19.0208" x2="36.1182" y2="19.0208">
		<stop  offset="0" style="stop-color:#2D3458"/>
		<stop  offset="1" style="stop-color:#3650A0"/>
	</linearGradient>
	<path style="fill:url(#SVGID_00000158724022210457662120000016220500853696778128_);" d="M36.1,19.2c0,0.7-0.2,1-0.6,1
		c-0.2,0-0.4-0.1-0.9-0.3c-0.4-0.2-0.6-0.3-0.7-0.4c-0.5,1-0.9,1.5-1.4,1.5h-0.4v-1h0.4c0.4,0,0.7-0.2,1-0.6
		c0.1-0.2,0.3-0.6,0.6-1.2c0.3-0.7,0.7-1.1,1.1-1.1c0.3,0,0.5,0.3,0.7,0.9C36,18.4,36.1,18.8,36.1,19.2z M35.4,18.9
		c0-0.1-0.1-0.3-0.2-0.6S34.9,18,34.8,18c-0.1,0-0.2,0.1-0.2,0.2c-0.1,0.1-0.1,0.2-0.1,0.3c0,0.1,0.1,0.2,0.4,0.4
		C35,19,35.1,19,35.2,19S35.4,19,35.4,18.9z"/>
	
		<linearGradient id="SVGID_00000113341429671710813300000014211386620930049982_" gradientUnits="userSpaceOnUse" x1="40.958" y1="21.7683" x2="48.4639" y2="21.7683">
		<stop  offset="0" style="stop-color:#2D3458"/>
		<stop  offset="1" style="stop-color:#3650A0"/>
	</linearGradient>
	<path style="fill:url(#SVGID_00000113341429671710813300000014211386620930049982_);" d="M48.2,26.4c-0.1,0.1-0.7,0.3-1.6,0.7
		c-0.3,0.1-0.7,0.2-1,0.2c-3.1,0-4.6-1.2-4.6-3.7c0-1.4,0.5-2.6,1.6-3.8c-0.4-0.2-0.7-0.3-0.9-0.5c-0.2-0.2-0.3-0.5-0.3-0.8
		c0-0.4,0.2-0.9,0.5-1.4c0.4-0.6,0.8-0.9,1.2-0.9c0.3,0,0.6,0.1,0.8,0.4c0.1,0.1,0.2,0.2,0.2,0.3c0,0.1-0.1,0.1-0.3,0.1
		c-0.4,0-0.9,0.2-1.3,0.4c-0.5,0.3-0.8,0.6-0.8,0.9c0,0.1,0.2,0.2,0.6,0.4c0.3,0.1,0.6,0.2,1,0.3c0.5-0.3,1.2-0.7,1.9-1.1
		c0.1-0.1,0.2-0.1,0.2,0c0,0.1-0.1,0.4-0.4,0.9c0,0.1-0.1,0.1-0.2,0.2c-1.1,0.4-1.9,1.1-2.6,1.9c-0.6,0.8-0.9,1.5-0.9,2.2
		c0,1.1,0.5,1.9,1.5,2.5c0.8,0.4,1.8,0.7,3,0.7c0.7,0,1.4-0.1,2.1-0.2c0.1,0,0.1,0,0.2,0c0.1,0,0.2,0,0.2,0.1
		C48.5,26.3,48.4,26.4,48.2,26.4z"/>
	
		<linearGradient id="SVGID_00000065797555574898034270000013324021156688639931_" gradientUnits="userSpaceOnUse" x1="47.2495" y1="16.9584" x2="49.749" y2="16.9584">
		<stop  offset="0" style="stop-color:#2D3458"/>
		<stop  offset="1" style="stop-color:#3650A0"/>
	</linearGradient>
	<path style="fill:url(#SVGID_00000065797555574898034270000013324021156688639931_);" d="M49.7,21h-0.4c-0.4,0-0.7-0.2-1-0.5
		c-0.4-0.5-0.6-1.2-0.7-2.3c-0.1-2.1-0.3-3.6-0.4-4.4c0-0.2,0-0.3,0.1-0.5c0.1-0.1,0.3-0.2,0.4-0.3c0.1-0.1,0.1-0.1,0.1,0.1l0.3,5.4
		c0,0.5,0.1,0.8,0.2,1c0.2,0.3,0.5,0.5,1,0.5h0.4V21z"/>
	
		<linearGradient id="SVGID_00000040543818492390991880000012375058914644657793_" gradientUnits="userSpaceOnUse" x1="49.3252" y1="17.0588" x2="52.5449" y2="17.0588">
		<stop  offset="0" style="stop-color:#2D3458"/>
		<stop  offset="1" style="stop-color:#3650A0"/>
	</linearGradient>
	<path style="fill:url(#SVGID_00000040543818492390991880000012375058914644657793_);" d="M52.5,18.4c0,0.9-0.2,1.5-0.7,1.9
		c-0.4,0.4-1.1,0.6-2,0.6h-0.6v-1H50c0.5,0,0.9,0,1.3-0.1c0.5-0.1,0.7-0.3,0.7-0.5c0-0.2-0.1-0.4-0.2-0.6c-0.3,0.3-0.6,0.4-1,0.4
		c-0.5,0-0.7-0.3-0.7-0.8c0-0.4,0.1-0.8,0.4-1.3c0.3-0.6,0.6-0.9,0.9-0.9c0.4,0,0.7,0.3,0.9,0.9C52.4,17.6,52.5,18,52.5,18.4z
		 M51.8,14L51,14.8l-0.8-0.8l0.8-0.8L51.8,14z M51.6,18c0-0.2,0-0.3-0.1-0.5c-0.1-0.2-0.2-0.3-0.3-0.3c-0.1,0-0.3,0.1-0.4,0.3
		c-0.1,0.2-0.1,0.3-0.1,0.4c0,0.2,0.1,0.4,0.3,0.4C51.2,18.3,51.4,18.2,51.6,18z"/>
	
		<linearGradient id="SVGID_00000059993596407680392940000014526622291774242440_" gradientUnits="userSpaceOnUse" x1="53.8838" y1="18.6355" x2="57.4453" y2="18.6355">
		<stop  offset="0" style="stop-color:#2D3458"/>
		<stop  offset="1" style="stop-color:#3650A0"/>
	</linearGradient>
	<path style="fill:url(#SVGID_00000059993596407680392940000014526622291774242440_);" d="M57.4,19.4c0,1.1-0.9,1.6-2.7,1.6
		c-0.3,0-0.5,0-0.7-0.1c-0.1,0-0.1-0.1-0.1-0.2c0-0.3,0-0.6,0.1-0.8c2,0,2.9-0.2,2.9-0.7c0-0.5-0.6-1.1-1.9-1.9c0,0,0-0.1,0-0.2
		c0.1-0.3,0.2-0.5,0.3-0.8c0-0.1,0.1-0.1,0.1-0.1c0.4,0.2,0.8,0.5,1.1,0.9C57.2,17.8,57.4,18.6,57.4,19.4z"/>
	
		<linearGradient id="SVGID_00000164494913165611953190000001885668458962496933_" gradientUnits="userSpaceOnUse" x1="62.292" y1="18.1082" x2="71.3906" y2="18.1082">
		<stop  offset="0" style="stop-color:#2D3458"/>
		<stop  offset="1" style="stop-color:#3650A0"/>
	</linearGradient>
	<path style="fill:url(#SVGID_00000164494913165611953190000001885668458962496933_);" d="M71.4,18.2c0,0.6-0.1,1.1-0.3,1.3
		c-0.4,0.5-1.3,1-2.5,1.2c-0.9,0.2-1.9,0.3-2.9,0.3c-2.3,0-3.4-0.6-3.4-1.8c0-0.6,0.2-1.1,0.6-1.6c0.1-0.1,0.1-0.1,0.2-0.1
		c0,0,0,0,0,0.1c0,0.1,0,0.1-0.1,0.2c-0.2,0.3-0.3,0.6-0.3,0.9c0,0.3,0.2,0.6,0.7,0.9c0.6,0.3,1.5,0.5,2.6,0.5c1.5,0,2.9-0.2,4-0.7
		c0.5-0.2,0.8-0.4,0.8-0.6c0-0.3-0.2-0.6-0.5-0.9c0,0,0-0.1,0-0.2l0.3-0.6c0.1-0.1,0.1-0.1,0.2,0C71.3,17.4,71.4,17.8,71.4,18.2z
		 M66.5,16l-0.8,0.8L64.9,16l0.7-0.8L66.5,16z M67.9,15.9l-0.8,0.8l-0.8-0.8l0.7-0.8L67.9,15.9z"/>
	
		<linearGradient id="SVGID_00000122721934212217991920000004507901479055386287_" gradientUnits="userSpaceOnUse" x1="72.0947" y1="20.6118" x2="76.5723" y2="20.6118">
		<stop  offset="0" style="stop-color:#2D3458"/>
		<stop  offset="1" style="stop-color:#3650A0"/>
	</linearGradient>
	<path style="fill:url(#SVGID_00000122721934212217991920000004507901479055386287_);" d="M76.6,19.4c0,1-0.3,2-1,2.8
		c-0.6,0.7-1.1,1.1-1.7,1.1c-0.5-0.2-1-0.4-1.6-0.5c-0.1,0-0.2-0.1-0.2-0.2c0-0.1,0.1-0.2,0.2-0.2c0.8,0,1.5-0.1,2.1-0.4
		c0.3-0.1,0.7-0.4,1.1-0.8c0.4-0.4,0.7-0.8,0.7-1.1c0-0.3-0.2-0.9-0.7-1.5c0-0.1,0-0.1,0-0.2c0.1-0.1,0.3-0.3,0.6-0.7
		c0,0,0.1,0,0.1,0C76.4,18.2,76.6,18.8,76.6,19.4z"/>
	
		<linearGradient id="SVGID_00000002362068433288055080000002505360713045786293_" gradientUnits="userSpaceOnUse" x1="77.913" y1="17.0515" x2="78.7271" y2="17.0515">
		<stop  offset="0" style="stop-color:#2D3458"/>
		<stop  offset="1" style="stop-color:#3650A0"/>
	</linearGradient>
	<path style="fill:url(#SVGID_00000002362068433288055080000002505360713045786293_);" d="M78.7,19.4c0,0.2,0,0.5-0.1,0.9
		c-0.1,0.5-0.2,0.7-0.3,0.7c0,0-0.1-0.1-0.1-0.3c0-0.9-0.1-3.2-0.4-6.8c0-0.1,0.2-0.3,0.5-0.6c0.1-0.1,0.2-0.1,0.2,0.1L78.7,19.4z"
		/>
	
		<linearGradient id="SVGID_00000083799893980049836080000011824788959898988974_" gradientUnits="userSpaceOnUse" x1="79.4307" y1="19.1985" x2="83.9082" y2="19.1985">
		<stop  offset="0" style="stop-color:#2D3458"/>
		<stop  offset="1" style="stop-color:#3650A0"/>
	</linearGradient>
	<path style="fill:url(#SVGID_00000083799893980049836080000011824788959898988974_);" d="M83.9,19.4c0,1-0.3,2-1,2.8
		c-0.6,0.7-1.1,1.1-1.7,1.1c-0.5-0.2-1-0.4-1.6-0.5c-0.1,0-0.2-0.1-0.2-0.2c0-0.1,0.1-0.2,0.2-0.2c0.8,0,1.5-0.1,2.1-0.4
		c0.3-0.1,0.7-0.4,1.1-0.8c0.4-0.4,0.7-0.8,0.7-1.1c0-0.3-0.2-0.9-0.7-1.5c0-0.1,0-0.1,0-0.2c0.1-0.1,0.3-0.3,0.6-0.7
		c0,0,0.1,0,0.1,0C83.8,18.2,83.9,18.8,83.9,19.4z M83.5,15.8l-0.8,0.8l-0.8-0.8l0.8-0.8L83.5,15.8z"/>
	
		<linearGradient id="SVGID_00000040548929122937118360000000014293730856070070_" gradientUnits="userSpaceOnUse" x1="84.6318" y1="20.3948" x2="89.4512" y2="20.3948">
		<stop  offset="0" style="stop-color:#2D3458"/>
		<stop  offset="1" style="stop-color:#3650A0"/>
	</linearGradient>
	<path style="fill:url(#SVGID_00000040548929122937118360000000014293730856070070_);" d="M89.5,19.8c0,0.9-0.4,1.7-1.1,2.6
		c-0.7,0.8-1.3,1.2-1.8,1.2c-0.6-0.1-1.2-0.3-1.8-0.4c-0.1,0-0.1-0.1-0.1-0.1c0-0.1,0.1-0.1,0.2-0.1c0.1,0,0.2,0,0.3,0
		c1.1,0,2.2-0.5,3.2-1.5c0.4-0.5,0.7-0.8,0.7-1.1c0-0.1,0-0.2-0.1-0.3c-0.4,0.2-0.7,0.4-1,0.4c-0.5,0-0.8-0.4-0.8-1.2
		c0-0.3,0.1-0.7,0.4-1.2c0.3-0.5,0.6-0.7,0.9-0.7c0.2,0,0.5,0.2,0.7,0.6C89.3,18.3,89.5,18.9,89.5,19.8z M88.5,19.1
		c0-0.1-0.1-0.3-0.2-0.4c-0.1-0.2-0.2-0.3-0.3-0.3c-0.1,0-0.2,0.1-0.4,0.2c-0.1,0.2-0.2,0.3-0.2,0.4c0,0.3,0.1,0.4,0.4,0.4
		C88.2,19.4,88.4,19.3,88.5,19.1z"/>
	
		<linearGradient id="SVGID_00000168091869534957055060000003148895618118579883_" gradientUnits="userSpaceOnUse" x1="94.3057" y1="20.4666" x2="101.6338" y2="20.4666">
		<stop  offset="0" style="stop-color:#2D3458"/>
		<stop  offset="1" style="stop-color:#3650A0"/>
	</linearGradient>
	<path style="fill:url(#SVGID_00000168091869534957055060000003148895618118579883_);" d="M101.6,17.3c0,0.1,0,0.2-0.1,0.5
		c-0.1,0.3-0.2,0.4-0.2,0.4c-0.1,0-0.2,0-0.4-0.1s-0.3-0.1-0.4-0.1c-0.4,0-0.7,0.2-1.2,0.5c-0.5,0.4-0.7,0.7-0.7,1.1
		c0,0.4,0.2,0.6,0.7,0.7c0.2,0,0.6,0.1,1.3,0.2c0.4,0.1,0.7,0.3,0.7,0.6c0,0.5-0.1,0.9-0.4,1.2c-0.2,0.2-0.5,0.4-1.1,0.7
		c-1,0.5-1.9,0.8-2.9,0.8c-1.7,0-2.5-0.8-2.5-2.3c0-0.4,0.1-0.8,0.2-1.3c0.2-0.5,0.3-0.9,0.6-1.2c0.1-0.1,0.1-0.2,0.2-0.2
		c0,0,0.1,0,0.1,0.1c0,0,0,0.1-0.1,0.2c-0.3,0.6-0.5,1.2-0.5,1.8c0,0.6,0.2,1.1,0.7,1.4c0.4,0.3,0.9,0.4,1.6,0.4
		c0.8,0,1.7-0.2,2.6-0.6c0.8-0.3,1.2-0.6,1.2-0.8c0-0.1-0.2-0.2-0.7-0.3c-0.6-0.1-1.1-0.2-1.3-0.3c-0.5-0.2-0.7-0.5-0.7-0.9
		c0-0.7,0.3-1.4,1-2.1c0.6-0.7,1.2-1,1.8-1C101.4,17,101.6,17.1,101.6,17.3z"/>
	
		<linearGradient id="SVGID_00000140706437250821779310000004946512306619147179_" gradientUnits="userSpaceOnUse" x1="102.9897" y1="16.9584" x2="105.4893" y2="16.9584">
		<stop  offset="0" style="stop-color:#2D3458"/>
		<stop  offset="1" style="stop-color:#3650A0"/>
	</linearGradient>
	<path style="fill:url(#SVGID_00000140706437250821779310000004946512306619147179_);" d="M105.5,21h-0.4c-0.4,0-0.7-0.2-1-0.5
		c-0.4-0.5-0.6-1.2-0.7-2.3c-0.1-2.1-0.3-3.6-0.4-4.4c0-0.2,0-0.3,0.1-0.5c0.1-0.1,0.3-0.2,0.4-0.3c0.1-0.1,0.1-0.1,0.1,0.1l0.3,5.4
		c0,0.5,0.1,0.8,0.2,1c0.2,0.3,0.5,0.5,1,0.5h0.4V21z"/>
	
		<linearGradient id="SVGID_00000002385429466405972850000002008387514952356761_" gradientUnits="userSpaceOnUse" x1="105.0586" y1="20.3093" x2="110.6367" y2="20.3093">
		<stop  offset="0" style="stop-color:#2D3458"/>
		<stop  offset="1" style="stop-color:#3650A0"/>
	</linearGradient>
	<path style="fill:url(#SVGID_00000002385429466405972850000002008387514952356761_);" d="M110.6,21h-0.5c-0.7,0-1.2,0-1.5,0.1
		c0.4,0.3,0.5,0.7,0.5,1.2c0,0.4-0.1,0.7-0.2,1c-0.2,0.3-0.4,0.5-0.8,0.5c-0.9,0-1.4-0.8-1.7-2.4c-0.1,0-0.2,0-0.3-0.1
		c0,0-0.1-0.1-0.1-0.3c-0.2,0-0.5,0.1-0.7,0.1h-0.4v-1h0.5c0.5,0,0.9,0,1.1-0.1c0.1-0.5,0.3-1,0.6-1.7c0.4-0.8,0.8-1.2,1.1-1.2
		c0.2,0,0.4,0.1,0.5,0.4c0.1,0.2,0.1,0.5,0.1,0.7c0,0.6-0.1,1-0.2,1.2c-0.2,0.3-0.6,0.6-1.1,0.9c0,0,0.4-0.1,1.1-0.2
		c0.5-0.1,1-0.2,1.5-0.2h0.4V21z M108.5,18.8c0-0.1,0-0.3-0.1-0.4c-0.1-0.2-0.2-0.3-0.3-0.3c-0.2,0-0.4,0.2-0.7,0.6
		c-0.2,0.3-0.3,0.7-0.4,1c0.3-0.1,0.7-0.2,1-0.3C108.4,19.2,108.5,19,108.5,18.8z M108.8,22.2c0-0.3-0.2-0.5-0.7-0.7
		c-0.4-0.2-0.7-0.3-1-0.3c0.1,1.1,0.5,1.6,1.2,1.6C108.6,22.8,108.8,22.6,108.8,22.2z"/>
	
		<linearGradient id="SVGID_00000163040989515684437950000001153567046545205912_" gradientUnits="userSpaceOnUse" x1="110.2129" y1="17.7356" x2="113.5254" y2="17.7356">
		<stop  offset="0" style="stop-color:#2D3458"/>
		<stop  offset="1" style="stop-color:#3650A0"/>
	</linearGradient>
	<path style="fill:url(#SVGID_00000163040989515684437950000001153567046545205912_);" d="M112.5,19c0,0.5-0.2,1-0.5,1.4
		c-0.3,0.4-0.8,0.6-1.3,0.6h-0.5v-1h0.5c0.3,0,0.5,0,0.8-0.1c0.4-0.1,0.5-0.2,0.5-0.4c0-0.2-0.2-0.6-0.6-1.1l0.4-0.8
		c0-0.1,0.1-0.1,0.1,0C112.3,18,112.5,18.5,112.5,19z M112,15.4l-0.8,0.8l-0.8-0.8l0.8-0.8L112,15.4z M113.5,15.3l-0.8,0.8l-0.8-0.8
		l0.8-0.8L113.5,15.3z"/>
	
		<linearGradient id="SVGID_00000135686273873758733740000014130699200479938452_" gradientUnits="userSpaceOnUse" x1="114.1494" y1="20.6118" x2="118.627" y2="20.6118">
		<stop  offset="0" style="stop-color:#2D3458"/>
		<stop  offset="1" style="stop-color:#3650A0"/>
	</linearGradient>
	<path style="fill:url(#SVGID_00000135686273873758733740000014130699200479938452_);" d="M118.6,19.4c0,1-0.3,2-1,2.8
		c-0.6,0.7-1.1,1.1-1.7,1.1c-0.5-0.2-1-0.4-1.6-0.5c-0.1,0-0.2-0.1-0.2-0.2c0-0.1,0.1-0.2,0.2-0.2c0.8,0,1.5-0.1,2.1-0.4
		c0.3-0.1,0.7-0.4,1.1-0.8c0.4-0.4,0.7-0.8,0.7-1.1c0-0.3-0.2-0.9-0.7-1.5c0-0.1,0-0.1,0-0.2c0.1-0.1,0.3-0.3,0.6-0.7
		c0,0,0.1,0,0.1,0C118.5,18.2,118.6,18.8,118.6,19.4z"/>
	
		<linearGradient id="SVGID_00000168830558778132991500000012667551701130379178_" gradientUnits="userSpaceOnUse" x1="119.9702" y1="16.9584" x2="122.4697" y2="16.9584">
		<stop  offset="0" style="stop-color:#2D3458"/>
		<stop  offset="1" style="stop-color:#3650A0"/>
	</linearGradient>
	<path style="fill:url(#SVGID_00000168830558778132991500000012667551701130379178_);" d="M122.5,21h-0.4c-0.4,0-0.7-0.2-1-0.5
		c-0.4-0.5-0.6-1.2-0.7-2.3c-0.1-2.1-0.3-3.6-0.4-4.4c0-0.2,0-0.3,0.1-0.5c0.1-0.1,0.3-0.2,0.4-0.3c0.1-0.1,0.1-0.1,0.1,0.1l0.3,5.4
		c0,0.5,0.1,0.8,0.2,1c0.2,0.3,0.5,0.5,1,0.5h0.4V21z"/>
	
		<linearGradient id="SVGID_00000156570739349971776420000018430244801947067782_" gradientUnits="userSpaceOnUse" x1="122.0459" y1="16.353" x2="129.0411" y2="16.353">
		<stop  offset="0" style="stop-color:#2D3458"/>
		<stop  offset="1" style="stop-color:#3650A0"/>
	</linearGradient>
	<path style="fill:url(#SVGID_00000156570739349971776420000018430244801947067782_);" d="M129,11.9l-0.1,0.7c0,0.1-0.1,0.1-0.1,0.2
		c-1,0.3-2,0.6-3,1.1c-1.1,0.5-2,1-2.8,1.6c-0.1,0.1-0.1,0.1,0,0.2c0.8,0.6,1.3,1.1,1.5,1.3c0.6,0.6,0.9,1.1,0.9,1.5
		c0,0.6-0.1,1.1-0.3,1.5c-0.3,0.6-1.1,0.9-2.3,0.9H122v-1h0.8c0.7,0,1.2-0.1,1.6-0.3c0.3-0.2,0.5-0.3,0.5-0.5c0-0.2,0-0.4-0.2-0.6
		c-0.1-0.1-0.4-0.4-0.9-0.9c-0.6-0.6-1-0.9-1.1-1.1c-0.2-0.2-0.2-0.5-0.2-0.9c0-0.3,0.1-0.5,0.2-0.7c0.5-0.6,1.4-1.2,2.7-1.8
		c1.1-0.6,2.3-1,3.4-1.4c0.1,0,0.1,0,0.1,0C129,11.8,129,11.8,129,11.9z"/>
	
		<linearGradient id="SVGID_00000021099094479287986500000017799859073389759107_" gradientUnits="userSpaceOnUse" x1="133.7412" y1="21.7756" x2="145.54" y2="21.7756">
		<stop  offset="0" style="stop-color:#2D3458"/>
		<stop  offset="1" style="stop-color:#3650A0"/>
	</linearGradient>
	<path style="fill:url(#SVGID_00000021099094479287986500000017799859073389759107_);" d="M145.5,21h-0.4c-0.6,0-1.1-0.4-1.5-1.1
		c-0.4,0.6-0.8,1-1.3,1c-0.4,0-0.7-0.2-0.9-0.7c-0.2,0.5-0.6,0.8-1.1,0.8c-0.3,0-0.6,0-0.7-0.1c0,2.6-1.2,3.9-3.5,3.9
		c-0.7,0-1.3-0.2-1.7-0.5c-0.5-0.4-0.8-0.9-0.8-1.5c0-0.4,0.1-0.9,0.3-1.3c0.2-0.4,0.3-0.7,0.5-0.9c0.1-0.1,0.1-0.1,0.2-0.1
		c0.1,0,0.1,0,0.1,0.1c0,0,0,0.1-0.1,0.2c-0.4,0.6-0.6,1.1-0.6,1.6c0,0.4,0.2,0.7,0.5,1c0.4,0.4,1.1,0.5,1.9,0.5
		c1.1,0,1.8-0.3,2.3-0.8c0.2-0.2,0.3-0.7,0.3-1.3c0-0.5-0.1-0.9-0.2-1.1c-0.1-0.1-0.2-0.2-0.2-0.3c0-0.1,0-0.2,0.1-0.4
		c0.1-0.1,0.1-0.3,0.2-0.4c0-0.1,0.1-0.1,0.2,0c0.2,0.2,0.3,0.4,0.3,0.4c0.2,0.2,0.5,0.3,0.8,0.3c0.3,0,0.6-0.1,0.8-0.4
		c0.2-0.2,0.3-0.4,0.4-0.6c0-0.1,0.1-0.1,0.1-0.1c0,0,0.1,0.1,0.1,0.3c0,0.2,0.1,0.4,0.1,0.4c0.1,0.2,0.3,0.3,0.5,0.3
		c0.6,0,0.9-0.3,1.1-0.8c0-0.1,0.1-0.1,0.1-0.1c0.1,0,0.1,0.1,0.1,0.2c0.1,0.3,0.2,0.5,0.4,0.7c0.2,0.2,0.5,0.3,0.7,0.3h0.5V21z"/>
	
		<linearGradient id="SVGID_00000164475180268846445220000006017978385688341689_" gradientUnits="userSpaceOnUse" x1="145.124" y1="21.4819" x2="148.8701" y2="21.4819">
		<stop  offset="0" style="stop-color:#2D3458"/>
		<stop  offset="1" style="stop-color:#3650A0"/>
	</linearGradient>
	<path style="fill:url(#SVGID_00000164475180268846445220000006017978385688341689_);" d="M148.9,21h-0.4c-0.3,0-0.5-0.1-0.8-0.3
		c-0.3-0.2-0.5-0.4-0.6-0.6c-0.3,0.6-0.8,0.9-1.5,0.9h-0.5v-1h0.6c0.6,0,1-0.2,1.3-0.6c0.1-0.1,0.2-0.2,0.2-0.2c0,0,0.1,0,0.1,0.1
		c0.1,0.1,0.1,0.2,0.2,0.3c0.2,0.3,0.5,0.4,0.9,0.4h0.4V21z M147,23.1l-0.8,0.8l-0.8-0.8l0.8-0.7L147,23.1z M148.4,23l-0.8,0.8
		l-0.8-0.8l0.8-0.8L148.4,23z"/>
	
		<linearGradient id="SVGID_00000121988452463038905930000017604203690490047677_" gradientUnits="userSpaceOnUse" x1="148.459" y1="20.6168" x2="150.7354" y2="20.6168">
		<stop  offset="0" style="stop-color:#2D3458"/>
		<stop  offset="1" style="stop-color:#3650A0"/>
	</linearGradient>
	<path style="fill:url(#SVGID_00000121988452463038905930000017604203690490047677_);" d="M150.7,19c0,0.5-0.2,1-0.5,1.4
		c-0.3,0.4-0.8,0.6-1.3,0.6h-0.5v-1h0.5c0.3,0,0.5,0,0.8-0.1c0.4-0.1,0.5-0.2,0.5-0.4c0-0.2-0.2-0.6-0.6-1.1l0.4-0.8
		c0-0.1,0.1-0.1,0.1,0C150.6,18,150.7,18.5,150.7,19z M150.7,23l-0.8,0.8l-0.8-0.8l0.8-0.8L150.7,23z"/>
	
		<linearGradient id="SVGID_00000166641947244918450400000013502504708089088935_" gradientUnits="userSpaceOnUse" x1="152.1401" y1="16.9584" x2="154.6396" y2="16.9584">
		<stop  offset="0" style="stop-color:#2D3458"/>
		<stop  offset="1" style="stop-color:#3650A0"/>
	</linearGradient>
	<path style="fill:url(#SVGID_00000166641947244918450400000013502504708089088935_);" d="M154.6,21h-0.4c-0.4,0-0.7-0.2-1-0.5
		c-0.4-0.5-0.6-1.2-0.7-2.3c-0.1-2.1-0.3-3.6-0.4-4.4c0-0.2,0-0.3,0.1-0.5c0.1-0.1,0.3-0.2,0.4-0.3c0.1-0.1,0.1-0.1,0.1,0.1l0.3,5.4
		c0,0.5,0.1,0.8,0.2,1c0.2,0.3,0.5,0.5,1,0.5h0.4V21z"/>
	
		<linearGradient id="SVGID_00000067227781712407070620000015681640058295304095_" gradientUnits="userSpaceOnUse" x1="154.2158" y1="18.3645" x2="157.9619" y2="18.3645">
		<stop  offset="0" style="stop-color:#2D3458"/>
		<stop  offset="1" style="stop-color:#3650A0"/>
	</linearGradient>
	<path style="fill:url(#SVGID_00000067227781712407070620000015681640058295304095_);" d="M158,21h-0.4c-0.3,0-0.5-0.1-0.8-0.3
		c-0.3-0.2-0.5-0.4-0.6-0.6c-0.3,0.6-0.8,0.9-1.5,0.9h-0.5v-1h0.6c0.6,0,1-0.2,1.3-0.6c0.1-0.1,0.2-0.2,0.2-0.2c0,0,0.1,0,0.1,0.1
		c0.1,0.1,0.1,0.2,0.2,0.3c0.2,0.3,0.5,0.4,0.9,0.4h0.4V21z M156,16.6l-0.8,0.8l-0.8-0.8l0.8-0.8L156,16.6z M157.5,16.5l-0.8,0.7
		l-0.8-0.8l0.8-0.8L157.5,16.5z"/>
	
		<linearGradient id="SVGID_00000155825390119029404740000001513868647708218779_" gradientUnits="userSpaceOnUse" x1="157.5508" y1="20.6442" x2="160.8604" y2="20.6442">
		<stop  offset="0" style="stop-color:#2D3458"/>
		<stop  offset="1" style="stop-color:#3650A0"/>
	</linearGradient>
	<path style="fill:url(#SVGID_00000155825390119029404740000001513868647708218779_);" d="M159.8,19c0,0.5-0.2,1-0.5,1.4
		c-0.3,0.4-0.8,0.6-1.3,0.6h-0.5v-1h0.5c0.3,0,0.5,0,0.8-0.1c0.4-0.1,0.5-0.2,0.5-0.4c0-0.2-0.2-0.6-0.6-1.1l0.4-0.8
		c0-0.1,0.1-0.1,0.1,0C159.7,18,159.8,18.5,159.8,19z M159.4,23.1l-0.8,0.8l-0.8-0.8l0.8-0.7L159.4,23.1z M160.9,23l-0.8,0.8
		l-0.8-0.8l0.8-0.8L160.9,23z"/>
	
		<linearGradient id="SVGID_00000056400418185048183570000011406584171332381097_" gradientUnits="userSpaceOnUse" x1="162.2412" y1="18.6355" x2="165.8027" y2="18.6355">
		<stop  offset="0" style="stop-color:#2D3458"/>
		<stop  offset="1" style="stop-color:#3650A0"/>
	</linearGradient>
	<path style="fill:url(#SVGID_00000056400418185048183570000011406584171332381097_);" d="M165.8,19.4c0,1.1-0.9,1.6-2.7,1.6
		c-0.3,0-0.5,0-0.7-0.1c-0.1,0-0.1-0.1-0.1-0.2c0-0.3,0-0.6,0.1-0.8c2,0,2.9-0.2,2.9-0.7c0-0.5-0.6-1.1-1.9-1.9c0,0,0-0.1,0-0.2
		c0.1-0.3,0.2-0.5,0.3-0.8c0-0.1,0.1-0.1,0.1-0.1c0.4,0.2,0.8,0.5,1.1,0.9C165.5,17.8,165.8,18.6,165.8,19.4z"/>
</g>
</svg>
